HIERARCHY
ROOT Hips
{
	OFFSET 0.0000 0.0000 0.0000
	CHANNELS 6 Xposition Yposition Zposition Zrotation Xrotation Yrotation
	JOINT Ab
	{
		OFFSET -0.0000 8.1305 -0.0000
		CHANNELS 3 Zrotation Xrotation Yrotation
		JOINT Chest
		{
			OFFSET -0.0000 26.2902 -0.0000
			CHANNELS 3 Zrotation Xrotation Yrotation
			JOINT Neck
			{
				OFFSET -0.0000 26.2902 0.0000
				CHANNELS 3 Zrotation Xrotation Yrotation
				JOINT Head
				{
					OFFSET -0.0000 10.8167 0.0000
					CHANNELS 3 Zrotation Xrotation Yrotation
					End Site
					{
						OFFSET -0.0000 16.7167 0.0000
					}
				}
			}
			JOINT LeftCollar
			{
				OFFSET -0.0000 26.2902 0.0000
				CHANNELS 3 Zrotation Xrotation Yrotation
				JOINT LeftShoulder
				{
					OFFSET 19.6667 -0.0000 0.0000
					CHANNELS 3 Zrotation Xrotation Yrotation
					JOINT LeftElbow
					{
						OFFSET 27.2190 0.0000 0.0000
						CHANNELS 3 Zrotation Xrotation Yrotation
						JOINT LeftWrist
						{
							OFFSET 30.7431 0.0000 0.0000
							CHANNELS 3 Zrotation Xrotation Yrotation
							End Site
							{
								OFFSET 0.0000 -14.7500 0.0000
							}
						}
					}
				}
			}
			JOINT RightCollar
			{
				OFFSET -0.0000 26.2902 0.0000
				CHANNELS 3 Zrotation Xrotation Yrotation
				JOINT RightShoulder
				{
					OFFSET -19.6667 0.0000 0.0000
					CHANNELS 3 Zrotation Xrotation Yrotation
					JOINT RightElbow
					{
						OFFSET -27.2190 0.0000 0.0000
						CHANNELS 3 Zrotation Xrotation Yrotation
						JOINT RightWrist
						{
							OFFSET -30.7431 0.0000 0.0000
							CHANNELS 3 Zrotation Xrotation Yrotation
							End Site
							{
								OFFSET -0.0000 -14.7500 0.0000
							}
						}
					}
				}
			}
		}
	}
	JOINT LeftHip
	{
		OFFSET 11.8000 0.0000 0.0000
		CHANNELS 3 Zrotation Xrotation Yrotation
		JOINT LeftKnee
		{
			OFFSET -0.0000 -39.7832 0.0000
			CHANNELS 3 Zrotation Xrotation Yrotation
			JOINT LeftAnkle
			{
				OFFSET -0.0000 -41.7317 0.0000
				CHANNELS 3 Zrotation Xrotation Yrotation
				End Site
				{
					OFFSET -0.0000 -4.9167 16.7167
				}
			}
		}
	}
	JOINT RightHip
	{
		OFFSET -11.8000 0.0000 0.0000
		CHANNELS 3 Zrotation Xrotation Yrotation
		JOINT RightKnee
		{
			OFFSET -0.0000 -39.7832 0.0000
			CHANNELS 3 Zrotation Xrotation Yrotation
			JOINT RightAnkle
			{
				OFFSET -0.0000 -41.7317 0.0000
				CHANNELS 3 Zrotation Xrotation Yrotation
				End Site
				{
					OFFSET -0.0000 -4.9167 16.7167
				}
			}
		}
	}
}
MOTION
Frames: 9
Frame Time: 0.010000
-18.6603 96.9234 175.0329 358.1950 356.8008 179.1211 357.7394 348.0783 359.8255 2.7282 10.2165 359.8157 359.2774 358.9151 0.8740 354.3770 2.6920 1.0130 339.6748 357.3031 15.0779 318.2855 59.0732 338.7830 11.1281 356.8064 327.9113 90.3336 356.9787 348.2827 27.1381 355.8239 342.8769 47.0199 42.8473 0.8589 339.5112 354.1148 31.9750 269.5792 354.3361 8.7951 355.8957 2.4207 1.0686 358.2500 6.6422 4.8922 355.5208 351.9825 13.3877 358.2146 5.3991 11.4597 6.2186 5.9814 9.1642 349.0827 343.6363 311.2439 
-18.6728 96.9176 175.0220 358.1927 356.7623 179.1272 357.7470 348.0632 359.8247 2.7259 10.2354 359.8115 359.2655 358.8760 0.8772 354.3766 2.7245 1.0180 339.6912 357.2898 15.0868 318.2670 59.0947 338.7629 11.1813 356.7782 327.9161 90.3933 356.9977 348.3672 27.1336 355.8528 342.8579 46.9830 42.8654 0.9353 339.5384 354.0836 31.9482 269.5750 354.3619 8.8392 355.8870 2.3705 1.0688 358.2453 6.6778 4.8833 355.5342 351.9840 13.3945 358.2056 5.3586 11.4345 6.2189 6.0047 9.1798 349.1714 343.4393 311.1763 
-18.6897 96.9137 175.0018 358.1918 356.7519 179.1340 357.7624 348.0721 359.8223 2.7102 10.2514 359.8114 359.2975 358.8378 0.8782 354.3349 2.7644 1.0197 339.7054 357.2936 15.0735 318.2066 59.0692 338.8176 11.1505 356.7589 327.8494 90.8753 357.0607 348.5883 27.1065 355.8259 342.8549 47.0314 42.8957 0.9424 339.4464 354.0700 31.9343 269.6381 354.3292 8.8017 355.8738 2.3620 1.0474 358.2427 6.7037 4.8672 355.5204 351.9081 13.5586 358.1967 5.3552 11.4091 6.2189 6.0145 9.1449 349.1578 343.4473 311.2213 
-18.7067 96.9088 174.9805 358.1874 356.7325 179.1456 357.7686 348.0615 359.8207 2.7047 10.2873 359.8066 359.3141 358.7877 0.8804 354.3028 2.8018 1.0239 339.7280 357.2993 15.0732 318.1606 59.0747 338.8275 11.1761 356.7552 327.8424 90.8386 357.0422 348.5959 27.0943 355.8639 342.8471 47.0344 42.8828 0.9674 339.5099 354.0725 31.9489 269.6006 354.3458 8.8414 355.8587 2.3406 1.0073 358.2380 6.7347 4.8725 355.4921 351.8654 13.5814 358.1788 5.3523 11.4161 6.2237 6.0175 9.1795 349.0731 343.5877 311.2345 
-18.7225 96.9049 174.9583 358.1820 356.7056 179.1434 357.7845 348.0452 359.8148 2.6831 10.3167 359.8041 359.3159 358.7338 0.8888 354.2928 2.8567 1.0365 339.7494 357.3000 15.0867 318.1567 59.0889 338.8041 11.2037 356.7458 327.8442 90.8028 357.0549 348.6262 27.0862 355.8405 342.8496 47.0553 42.9181 0.9852 339.3901 354.0375 31.9602 270.0239 354.2092 8.2523 355.8419 2.3121 0.9884 358.2370 6.7666 4.8800 355.5142 351.8422 13.5859 358.1633 5.3299 11.4051 6.2274 6.0343 9.1554 349.1724 343.3944 311.2067 
-18.7399 96.9026 174.9378 358.1716 356.6797 179.1508 357.7772 348.0354 359.8133 2.6813 10.3398 359.8032 359.3353 358.7021 0.8925 354.2735 2.8875 1.0433 339.7453 357.3033 15.0877 318.1706 59.0726 338.8032 11.1784 356.7532 327.8265 90.7553 357.0556 348.5816 27.0686 355.8436 342.8434 47.0722 42.9546 1.0011 339.3828 354.0412 31.9544 270.0455 354.2281 8.1632 355.8212 2.2860 0.9363 358.2294 6.7935 4.8936 355.4956 351.8078 13.6137 358.1433 5.3132 11.3615 6.2270 6.0497 9.1720 349.1878 343.3668 311.2104 
-18.7562 96.8989 174.9206 358.1727 356.6462 179.1526 357.7792 348.0406 359.8190 2.6952 10.3317 359.8058 359.3180 358.6681 0.8918 354.2888 2.9298 1.0444 339.7434 357.2953 15.0928 318.1682 59.1034 338.7918 11.2081 356.7465 327.8347 90.7450 357.0614 348.6117 27.0605 355.8447 342.8322 47.0631 42.9637 1.0162 339.3763 354.0425 31.9559 270.0382 354.2238 8.1728 355.8149 2.2492 0.8989 358.2164 6.8209 4.8997 355.4509 351.7606 13.6313 358.1311 5.2798 11.3581 6.2359 6.0698 9.1805 349.1843 343.3459 311.1984 
-18.7749 96.8959 174.8952 358.1681 356.6300 179.1486 357.7345 348.1216 359.8546 2.7752 10.1942 359.8433 359.3001 358.7730 0.8719 354.2878 2.8899 1.0210 339.7036 357.2869 15.0647 318.0640 59.1611 338.9393 11.2043 356.7541 327.8332 90.7869 357.0470 348.6398 27.0234 355.8311 342.7855 47.0981 43.0170 0.9641 339.3287 354.0484 31.9338 270.0142 354.2237 8.1371 355.8003 2.2467 0.8490 358.2022 6.8268 4.9240 355.5295 351.7381 13.6520 358.1110 5.2845 11.3869 6.2431 6.0539 9.1309 349.2022 343.3102 311.2073 
-18.7934 96.8919 174.8701 358.1654 356.6094 179.1453 357.7601 348.1151 359.8532 2.7369 10.2239 359.8398 359.3369 358.7447 0.8605 354.2904 2.8946 1.0106 339.7168 357.2937 15.0415 318.1285 59.1615 338.8890 11.1914 356.7474 327.8444 90.6994 356.9484 348.4963 27.0352 355.8327 342.7606 47.0958 43.0190 0.9872 339.3726 354.0508 31.9366 269.9178 354.2480 8.1644 355.7939 2.2335 0.7831 358.1757 6.8509 4.9336 355.5533 351.7019 13.6978 358.0934 5.2772 11.3846 6.2478 6.0582 9.1244 349.2129 343.2863 311.2148 
